<svg xmlns="http://www.w3.org/2000/svg" width="1920" height="1080" viewBox="0 0 1920 1080">
  <defs>
    <linearGradient id="sky" x1="0" y1="0" x2="1" y2="1">
      <stop offset="0" stop-color="#17243a"/>
      <stop offset="0.58" stop-color="#263a58"/>
      <stop offset="1" stop-color="#8b6746"/>
    </linearGradient>
    <radialGradient id="light" cx="72%" cy="32%" r="42%">
      <stop offset="0" stop-color="#edcf96" stop-opacity="0.52"/>
      <stop offset="1" stop-color="#edcf96" stop-opacity="0"/>
    </radialGradient>
    <linearGradient id="robe" x1="0" y1="0" x2="1" y2="1">
      <stop offset="0" stop-color="#f1eee6"/>
      <stop offset="1" stop-color="#a8acb4"/>
    </linearGradient>
    <filter id="soft"><feGaussianBlur stdDeviation="18"/></filter>
  </defs>
  <rect width="1920" height="1080" fill="url(#sky)"/>
  <rect width="1920" height="1080" fill="url(#light)"/>
  <circle cx="220" cy="150" r="110" fill="#d8b978" opacity="0.12" filter="url(#soft)"/>
  <path d="M0 810 C300 720 520 760 760 830 C1050 915 1320 780 1920 720 V1080 H0Z" fill="#0b111c" opacity="0.72"/>
  <path d="M0 870 C420 760 720 940 1110 840 C1370 774 1600 790 1920 850 V1080 H0Z" fill="#070b12" opacity="0.82"/>
  <g opacity="0.18" fill="#e6d3a4">
    <circle cx="178" cy="250" r="3"/><circle cx="362" cy="138" r="2"/><circle cx="548" cy="286" r="3"/>
    <circle cx="870" cy="146" r="2"/><circle cx="1052" cy="242" r="3"/><circle cx="1710" cy="170" r="2"/>
  </g>
  <g transform="translate(980 184)">
    <ellipse cx="108" cy="160" rx="104" ry="122" fill="#c6a580" opacity="0.24"/>
    <path d="M20 132 C28 36 188 10 222 132 L205 292 C172 330 58 328 26 286Z" fill="url(#robe)"/>
    <ellipse cx="120" cy="148" rx="72" ry="86" fill="#523d32"/>
    <path d="M55 148 C70 44 195 54 202 144 C171 109 91 96 55 148Z" fill="#eeeae1"/>
    <path d="M82 188 C112 213 154 212 181 184 C166 244 99 248 82 188Z" fill="#211a19" opacity="0.88"/>
    <path d="M18 292 C84 250 182 250 242 310 L316 716 H-72 L-30 344Z" fill="#17181c"/>
    <path d="M16 286 C54 250 188 248 224 286 L198 670 H48Z" fill="#eeeae1"/>
    <path d="M70 298 C102 320 148 320 182 296 L166 650 H84Z" fill="#d5d2cd" opacity="0.7"/>
  </g>
  <g transform="translate(830 440)" stroke="#11151c" stroke-linecap="round">
    <path d="M0 0 L220 12" stroke-width="18"/>
    <path d="M42 5 L4 408" stroke-width="13"/>
    <rect x="205" y="-10" width="122" height="48" rx="24" fill="#11151c" stroke="none"/>
    <circle cx="307" cy="14" r="15" fill="#323a48" stroke="none"/>
  </g>
  <rect x="890" y="910" width="430" height="3" fill="#d1ad65" opacity="0.5"/>
</svg>
