<svg xmlns="http://www.w3.org/2000/svg" width="1080" height="1920" viewBox="0 0 1080 1920">
  <defs>
    <linearGradient id="lsky" x1="0" y1="0" x2="0" y2="1">
      <stop offset="0%" stop-color="#0a0a1a"/>
      <stop offset="100%" stop-color="#1a1030"/>
    </linearGradient>
    <radialGradient id="glow1" cx="50%" cy="50%" r="50%">
      <stop offset="0%" stop-color="#f5d693" stop-opacity="0.3"/>
      <stop offset="100%" stop-color="#f5d693" stop-opacity="0"/>
    </radialGradient>
  </defs>
  <rect width="1080" height="1920" fill="url(#lsky)"/>
  <circle cx="200" cy="300" r="80" fill="url(#glow1)"/>
  <rect x="190" y="250" width="20" height="60" rx="5" fill="#c4973a" opacity="0.6"/>
  <line x1="200" y1="240" x2="200" y2="180" stroke="#c4973a" stroke-width="1" opacity="0.4"/>
  <circle cx="500" cy="200" r="60" fill="url(#glow1)"/>
  <rect x="492" y="160" width="16" height="50" rx="4" fill="#c4973a" opacity="0.6"/>
  <line x1="500" y1="150" x2="500" y2="100" stroke="#c4973a" stroke-width="1" opacity="0.4"/>
  <circle cx="850" cy="350" r="70" fill="url(#glow1)"/>
  <rect x="841" y="300" width="18" height="55" rx="5" fill="#c4973a" opacity="0.6"/>
  <line x1="850" y1="290" x2="850" y2="220" stroke="#c4973a" stroke-width="1" opacity="0.4"/>
  <circle cx="350" cy="500" r="50" fill="url(#glow1)"/>
  <rect x="343" y="465" width="14" height="40" rx="4" fill="#c4973a" opacity="0.5"/>
  <circle cx="750" cy="550" r="55" fill="url(#glow1)"/>
  <rect x="743" y="510" width="14" height="45" rx="4" fill="#c4973a" opacity="0.5"/>
</svg>
