<svg xmlns="http://www.w3.org/2000/svg" width="1080" height="1920" viewBox="0 0 1080 1920">
  <defs>
    <radialGradient id="nsky" cx="50%" cy="40%" r="60%">
      <stop offset="0%" stop-color="#1a1a3e"/>
      <stop offset="100%" stop-color="#050510"/>
    </radialGradient>
  </defs>
  <rect width="1080" height="1920" fill="url(#nsky)"/>
  <circle cx="120" cy="200" r="2" fill="white" opacity="0.9"/>
  <circle cx="350" cy="100" r="1.5" fill="white" opacity="0.7"/>
  <circle cx="500" cy="300" r="2.5" fill="white" opacity="0.8"/>
  <circle cx="780" cy="150" r="2" fill="white" opacity="0.6"/>
  <circle cx="900" cy="350" r="1.5" fill="white" opacity="0.9"/>
  <circle cx="200" cy="500" r="1" fill="white" opacity="0.5"/>
  <circle cx="650" cy="450" r="2" fill="white" opacity="0.7"/>
  <circle cx="400" cy="600" r="1.5" fill="white" opacity="0.6"/>
  <circle cx="100" cy="750" r="2" fill="white" opacity="0.8"/>
  <circle cx="800" cy="700" r="1" fill="white" opacity="0.5"/>
  <circle cx="540" cy="850" r="2.5" fill="white" opacity="0.9"/>
  <circle cx="300" cy="950" r="1.5" fill="white" opacity="0.7"/>
  <circle cx="700" cy="1000" r="2" fill="white" opacity="0.6"/>
  <circle cx="150" cy="1100" r="1" fill="white" opacity="0.8"/>
  <circle cx="950" cy="550" r="2" fill="white" opacity="0.7"/>
  <circle cx="450" cy="1200" r="1.5" fill="white" opacity="0.5"/>
  <circle cx="850" cy="1300" r="2" fill="white" opacity="0.6"/>
  <circle cx="250" cy="1400" r="1" fill="white" opacity="0.9"/>
  <circle cx="600" cy="1500" r="2" fill="white" opacity="0.7"/>
  <circle cx="100" cy="1600" r="1.5" fill="white" opacity="0.5"/>
</svg>
